<svg width="126" height="185" viewBox="0 0 126 185" fill="none" xmlns="http://www.w3.org/2000/svg">
<path d="M67.5 75L102 89C102 89 105.89 86.4805 109.91 79.5043C113.931 72.5281 116 65.051 116 57.5C116 49.949 113.931 42.4719 109.91 35.4957C105.89 28.5195 99.9973 22.1807 92.5686 16.8414C85.1399 11.502 76.3207 7.26657 66.6147 4.37692C56.9087 1.48728 46.5058 -6.6013e-07 36 0L36 28.75C41.2529 28.75 46.4543 29.4936 51.3074 30.9385C56.1604 32.3833 60.57 34.501 64.2843 37.1707C67.9986 39.8404 70.945 43.0097 72.9552 46.4978C74.9654 49.986 76 53.7245 76 57.5C76 61.2755 74.9654 65.014 72.9552 68.5022C70.945 71.9903 67.5 75 67.5 75Z" fill="#E13C5A"/>
<path d="M0 0H24V101H0V0Z" fill="#DCDCDC"/>
<path d="M0 158L77 145L41.5 185H0V158Z" fill="#E13C5A"/>
<path d="M41.5 185C63.6014 185 85.9642 179.942 101.592 169.159C117.22 158.375 126 143.75 126 128.5C126 113.25 117.22 98.6247 101.592 87.8414C85.9642 77.058 58.1014 71 36 71V101C47.0507 101 64.3154 102.779 72.1294 108.171C79.9435 113.562 84.3333 120.875 84.3333 128.5C84.3333 136.125 77 145 73 149C67.5 155.5 63.5 160 57.5 167L41.5 185Z" fill="#DCDCDC"/>
<path d="M0 101H24V158H0V101Z" fill="#E13C5A"/>
</svg>
