<svg width="215" height="215" viewBox="0 0 215 215" fill="none" xmlns="http://www.w3.org/2000/svg">
<rect width="215" height="215" fill="white"/>
<path d="M116.5 90L151 104C151 104 154.89 101.481 158.91 94.5043C162.931 87.5281 165 80.051 165 72.5C165 64.949 162.931 57.4719 158.91 50.4957C154.89 43.5195 148.997 37.1807 141.569 31.8414C134.14 26.502 125.321 22.2666 115.615 19.3769C105.909 16.4873 95.5058 15 85 15L85 43.75C90.2529 43.75 95.4543 44.4936 100.307 45.9385C105.16 47.3833 109.57 49.501 113.284 52.1707C116.999 54.8404 119.945 58.0097 121.955 61.4978C123.965 64.986 125 68.7245 125 72.5C125 76.2755 123.965 80.014 121.955 83.5022C119.945 86.9903 116.5 90 116.5 90Z" fill="#333333"/>
<path d="M49 15H73V116H49V15Z" fill="#CA234B"/>
<path d="M49 173L126 160L90.5 200H49V173Z" fill="#333333"/>
<path d="M90.5 200C112.601 200 134.964 194.942 150.592 184.159C166.22 173.375 175 158.75 175 143.5C175 128.25 166.22 113.625 150.592 102.841C134.964 92.058 107.101 86 85 86V116C96.0507 116 113.315 117.779 121.129 123.171C128.943 128.562 133.333 135.875 133.333 143.5C133.333 151.125 126 160 122 164C116.5 170.5 112.5 175 106.5 182L90.5 200Z" fill="#CA234B"/>
<path d="M49 116H73V173H49V116Z" fill="#333333"/>
</svg>
