<svg width="215" height="215" viewBox="0 0 215 215" fill="none" xmlns="http://www.w3.org/2000/svg">
<rect width="215" height="215" fill="#0F0F0F"/>
<path d="M113.5 90L148 104C148 104 151.89 101.481 155.91 94.5043C159.931 87.5281 162 80.051 162 72.5C162 64.949 159.931 57.4719 155.91 50.4957C151.89 43.5195 145.997 37.1807 138.569 31.8414C131.14 26.502 122.321 22.2666 112.615 19.3769C102.909 16.4873 92.5058 15 82 15L82 43.75C87.2529 43.75 92.4543 44.4936 97.3074 45.9385C102.16 47.3833 106.57 49.501 110.284 52.1707C113.999 54.8404 116.945 58.0097 118.955 61.4978C120.965 64.986 122 68.7245 122 72.5C122 76.2755 120.965 80.014 118.955 83.5022C116.945 86.9903 113.5 90 113.5 90Z" fill="#CA234B"/>
<path d="M46 15H70V116H46V15Z" fill="#CECECE"/>
<path d="M46 173L123 160L87.5 200H46V173Z" fill="#CA234B"/>
<path d="M87.5 200C109.601 200 131.964 194.942 147.592 184.159C163.22 173.375 172 158.75 172 143.5C172 128.25 163.22 113.625 147.592 102.841C131.964 92.058 104.101 86 82 86V116C93.0507 116 110.315 117.779 118.129 123.171C125.943 128.562 130.333 135.875 130.333 143.5C130.333 151.125 123 160 119 164C113.5 170.5 109.5 175 103.5 182L87.5 200Z" fill="#CECECE"/>
<path d="M46 116H70V173H46V116Z" fill="#CA234B"/>
</svg>
