<svg width="134" height="193" viewBox="0 0 134 193" fill="none" xmlns="http://www.w3.org/2000/svg">
<g filter="url(#filter0_d)">
<path d="M71.5 78L106 92C106 92 109.89 89.4805 113.91 82.5043C117.931 75.5281 120 68.051 120 60.5C120 52.949 117.931 45.4719 113.91 38.4957C109.89 31.5195 103.997 25.1807 96.5686 19.8414C89.1399 14.502 80.3207 10.2666 70.6147 7.37692C60.9087 4.48728 50.5058 3 40 3L40 31.75C45.2529 31.75 50.4543 32.4936 55.3074 33.9385C60.1604 35.3833 64.57 37.501 68.2843 40.1707C71.9986 42.8404 74.945 46.0097 76.9552 49.4978C78.9654 52.986 80 56.7245 80 60.5C80 64.2755 78.9654 68.014 76.9552 71.5022C74.945 74.9903 71.5 78 71.5 78Z" fill="#CA234B"/>
<path d="M4 3H28V104H4V3Z" fill="#CECECE"/>
<path d="M4 161L81 148L45.5 188H4V161Z" fill="#CA234B"/>
<path d="M45.5 188C67.6014 188 89.9642 182.942 105.592 172.159C121.22 161.375 130 146.75 130 131.5C130 116.25 121.22 101.625 105.592 90.8414C89.9642 80.058 62.1014 74 40 74V104C51.0507 104 68.3154 105.779 76.1294 111.171C83.9435 116.562 88.3333 123.875 88.3333 131.5C88.3333 139.125 81 148 77 152C71.5 158.5 67.5 163 61.5 170L45.5 188Z" fill="#CECECE"/>
<path d="M4 104H28V161H4V104Z" fill="#CA234B"/>
</g>
<defs>
<filter id="filter0_d" x="0" y="0" width="134" height="193" filterUnits="userSpaceOnUse" color-interpolation-filters="sRGB">
<feFlood flood-opacity="0" result="BackgroundImageFix"/>
<feColorMatrix in="SourceAlpha" type="matrix" values="0 0 0 0 0 0 0 0 0 0 0 0 0 0 0 0 0 0 127 0"/>
<feOffset dy="1"/>
<feGaussianBlur stdDeviation="2"/>
<feColorMatrix type="matrix" values="0 0 0 0 0 0 0 0 0 0 0 0 0 0 0 0 0 0 0.25 0"/>
<feBlend mode="normal" in2="BackgroundImageFix" result="effect1_dropShadow"/>
<feBlend mode="normal" in="SourceGraphic" in2="effect1_dropShadow" result="shape"/>
</filter>
</defs>
</svg>
